<?xml version="1.0" encoding="utf-8"?>
<!-- Generator: Adobe Illustrator 24.1.0, SVG Export Plug-In . SVG Version: 6.00 Build 0)  -->
<svg version="1.1" id="Layer_1" xmlns="http://www.w3.org/2000/svg" xmlns:xlink="http://www.w3.org/1999/xlink" x="0px" y="0px"
	 viewBox="0 0 400 400" style="enable-background:new 0 0 400 400;" xml:space="preserve">
<g>
	<path d="M399.9,307.8c-2.1,6.3-5.1,12.2-9.7,17c-3.8,4-8.2,6.2-13.8,6.2c-117.7-0.1-235.3-0.1-353,0c-5,0-9.2-1.5-12.7-5.1
		C4,319-0.1,311-0.1,300.8C0.1,235.7,0,170.7,0,105.6c0-1.3,0-2.5,0-4.6c67,52.5,133.4,104.4,200,156.5
		c66.7-52.2,133.4-104.4,200-156.5C399.9,169.9,399.9,238.8,399.9,307.8z"/>
	<path d="M199.9,222.3c-11.2-8.7-22.4-17.4-33.6-26.1c-46.7-36.3-93.4-72.6-140.1-109c-4.9-3.8-9.6-7.8-14.2-11.9
		c-2.6-2.3-2-4.6,1.3-5.3c3.4-0.7,7-0.9,10.5-0.9c117.3,0,234.5,0,351.8,0c3,0,6,0.1,8.9,0.8c1.7,0.4,3.1,1.9,4.7,2.9
		c-0.9,1.3-1.6,3-2.8,4c-27.2,21.6-54.4,43.2-81.8,64.6c-33.6,26.2-67.4,52.2-101.1,78.3C202.4,220.5,201.2,221.3,199.9,222.3z"/>
</g>
</svg>
