<?xml version="1.0" encoding="utf-8"?>
<!-- Generator: Adobe Illustrator 24.1.0, SVG Export Plug-In . SVG Version: 6.00 Build 0)  -->
<svg version="1.1" id="Layer_1" xmlns="http://www.w3.org/2000/svg" xmlns:xlink="http://www.w3.org/1999/xlink" x="0px" y="0px"
	 viewBox="0 0 400 400" style="enable-background:new 0 0 400 400;" xml:space="preserve">
<style type="text/css">
	.st0{fill:#FFFFFF;}
</style>
<g id="tZqoS7.tif">
	<g>
		<path d="M0-0.3c133.4,0,266.9,0,400.3,0c0,133.4,0,266.9,0,400.3c-133.4,0-266.9,0-400.3,0C0,266.6,0,133.1,0-0.3z M179.1,207.6
			c-0.2,1.8-0.5,3-0.5,4.3c0.1,32.9-0.2,65.8,0.6,98.6c0.4,16.9,13.9,26.1,30.1,21.5c9.2-2.6,15-11.8,15.1-22.9
			c0.1-35.8,0-71.5,0-107.3c0-1.1-0.2-2.2-0.3-4.1C209.9,205.9,195.2,208.6,179.1,207.6z M234.6,150.2c0-18.8-15.4-34.1-34.1-34.1
			c-18.9,0-34.9,15.5-34.5,34.3c0.4,19,14.3,34.3,34.5,34.2C221.4,184.5,234.9,167.8,234.6,150.2z M93.2,199.7
			c0.6,0.2,1.2,0.3,1.7,0.5c0.6-1.3,1.4-2.6,1.8-3.9c1.6-4.9,3.1-9.9,4.7-14.9c10.7-32.6,27.5-61,56.1-81.3
			c16.7-11.9,35.2-19,56-19.3c18.8-0.2,35.5,6,50.8,16.6c2,1.4,4.1,2.7,6.3,3.8c0.9,0.4,2.6,0.6,3.2,0.1c0.6-0.6,0.9-2.3,0.5-3.2
			c-1.1-2.6-2.3-5.4-4-7.5c-17-21.1-39.9-27.3-65.7-25.1c-22.8,1.9-42.2,12.1-59.1,26.9c-27.2,23.7-42.8,54.1-50,89
			C94.2,187.4,93.9,193.6,93.2,199.7z"/>
		<path class="st0" d="M179.1,207.6c16.1,1.1,30.8-1.7,45-9.8c0.2,1.9,0.3,3,0.3,4.1c0,35.8,0,71.5,0,107.3
			c0,11.1-5.9,20.3-15.1,22.9c-16.2,4.6-29.7-4.5-30.1-21.5c-0.8-32.9-0.5-65.8-0.6-98.6C178.6,210.6,178.9,209.3,179.1,207.6z"/>
		<path class="st0" d="M234.6,150.2c0.3,17.6-13.2,34.3-34.2,34.4c-20.2,0.1-34.1-15.2-34.5-34.2c-0.4-18.8,15.6-34.3,34.5-34.3
			C219.2,116.1,234.6,131.4,234.6,150.2z"/>
		<path class="st0" d="M93.2,199.7c0.7-6.1,1-12.4,2.3-18.4c7.2-34.9,22.9-65.3,50-89c17-14.8,36.4-25,59.1-26.9
			c25.8-2.2,48.7,4.1,65.7,25.1c1.8,2.2,2.9,4.9,4,7.5c0.4,0.9,0.1,2.6-0.5,3.2c-0.6,0.5-2.3,0.4-3.2-0.1c-2.2-1.1-4.3-2.4-6.3-3.8
			c-15.3-10.5-32-16.8-50.8-16.6c-20.8,0.3-39.2,7.4-56,19.3c-28.5,20.3-45.3,48.7-56.1,81.3c-1.6,4.9-3.1,9.9-4.7,14.9
			c-0.4,1.4-1.2,2.6-1.8,3.9C94.3,200.1,93.7,199.9,93.2,199.7z"/>
	</g>
</g>
</svg>
