<?xml version="1.0" encoding="utf-8"?>
<!-- Generator: Adobe Illustrator 24.1.0, SVG Export Plug-In . SVG Version: 6.00 Build 0)  -->
<svg version="1.1" id="Layer_1" xmlns="http://www.w3.org/2000/svg" xmlns:xlink="http://www.w3.org/1999/xlink" x="0px" y="0px"
	 viewBox="0 0 400 400" style="enable-background:new 0 0 400 400;" xml:space="preserve">
<g id="NKxmUQ.tif">
	<g>
		<path d="M365.6,400c-110.4,0-220.8,0-331.2,0c-0.4-0.2-0.9-0.6-1.3-0.7C13,395.1,0,379.3,0,358.7c0-105.8,0-211.7,0-317.5
			c0-3.6,0.4-7.3,1.2-10.8C5.9,12,21.9,0,41.6,0c105.6,0,211.2,0,316.7,0c1.2,0,2.3,0,3.5,0.1c11.2,0.7,20.4,5.4,28,13.6
			c5.4,5.9,8.1,13.2,10.1,20.7c0,110.4,0,220.8,0,331.2c-0.2,0.6-0.6,1.1-0.7,1.7c-1.9,9.5-6.7,17.3-14.2,23.5
			C379.4,395.7,372.6,398,365.6,400z M339.8,339.8c0.1-1.2,0.1-1.9,0.1-2.7c0-37,0.2-73.9-0.1-110.9c-0.2-24.4-10.8-43.7-30.6-57.6
			c-21.4-14.9-47.9-18-71.6-1.7c-6.3,4.3-11.7,10-17.6,15.1c0-6.8,0-14.2,0-21.7c-20.2,0-39.9,0-59.7,0c0,59.9,0,119.7,0,179.4
			c20,0,39.6,0,59.6,0c0-1.7,0-3.3,0-4.8c0-32.3,0-64.6,0-96.9c0-2.6,0.1-5.2,0.3-7.8c1.7-17.4,21-30.1,37.6-24.9
			c13.9,4.3,22,15.6,22,31c0,32.9,0,65.9,0,98.8c0,1.5,0,3,0,4.7C300.1,339.8,319.8,339.8,339.8,339.8z M119.8,339.8
			c0-60.1,0-119.8,0-179.4c-20,0-39.7,0-59.4,0c0,60,0,119.6,0,179.4C80.2,339.8,99.8,339.8,119.8,339.8z M125.9,90.1
			C126,70.2,109.8,54,90,54c-19.7,0-36.1,16.4-36,36.1c0.1,19.7,16,35.6,35.8,35.8C109.7,126,125.8,110,125.9,90.1z"/>
	</g>
</g>
</svg>
